<?xml version="1.0" encoding="UTF-8"?> <svg xmlns="http://www.w3.org/2000/svg" width="1545" height="1169" viewBox="0 0 1545 1169" fill="none"> <g opacity="0.7"> <g filter="url(#filter0_f_1232_2)"> <ellipse cx="706.393" cy="588.859" rx="186.705" ry="155.36" transform="rotate(-180 706.393 588.859)" fill="#60BCFF" fill-opacity="0.1"></ellipse> </g> <g filter="url(#filter1_f_1232_2)"> <path d="M668.997 456.107C668.997 380.164 799.854 397.506 947.692 318.599C1114.51 347.764 1226.39 380.164 1226.39 456.107C1226.39 532.05 1101.61 593.615 947.692 593.615C793.773 593.615 668.997 532.05 668.997 456.107Z" fill="#03D4BF" fill-opacity="0.9"></path> </g> <g filter="url(#filter2_f_1232_2)"> <path d="M318.094 705.962C318.094 619.495 449.574 546.814 611.764 546.814C749.821 597.867 806.094 670.548 806.094 757.014C806.094 843.48 680.192 812.151 581.151 850.814C418.962 850.814 318.094 792.428 318.094 705.962Z" fill="#F17168" fill-opacity="0.9"></path> </g> <g filter="url(#filter3_f_1232_2)"> <path d="M613.986 623.109C613.986 547.166 744.842 564.508 892.68 485.601C1059.5 514.766 1171.38 547.166 1171.38 623.109C1171.38 699.052 1046.6 760.617 892.68 760.616C738.761 760.616 613.986 699.052 613.986 623.109Z" fill="#6050FF"></path> </g> <g filter="url(#filter4_f_1232_2)"> <path d="M393.183 684.248C393.183 608.305 524.04 625.647 671.878 546.741C838.695 575.905 950.572 608.305 950.572 684.248C950.572 760.192 825.796 821.756 671.878 821.756C517.959 821.756 393.183 760.192 393.183 684.248Z" fill="#4B5FFF" fill-opacity="0.33"></path> </g> <g opacity="0.4" filter="url(#filter5_f_1232_2)"> <ellipse rx="169.109" ry="289.178" transform="matrix(-0.374884 -0.927072 0.996314 0.0857859 1002.57 735.232)" fill="#3F08DB" fill-opacity="0.6"></ellipse> </g> </g> <defs> <filter id="filter0_f_1232_2" x="202.381" y="116.192" width="1008.02" height="945.334" filterUnits="userSpaceOnUse" color-interpolation-filters="sRGB"> <feFlood flood-opacity="0" result="BackgroundImageFix"></feFlood> <feBlend mode="normal" in="SourceGraphic" in2="BackgroundImageFix" result="shape"></feBlend> <feGaussianBlur stdDeviation="158.653" result="effect1_foregroundBlur_1232_2"></feGaussianBlur> </filter> <filter id="filter1_f_1232_2" x="350.708" y="0.310349" width="1193.97" height="911.593" filterUnits="userSpaceOnUse" color-interpolation-filters="sRGB"> <feFlood flood-opacity="0" result="BackgroundImageFix"></feFlood> <feBlend mode="normal" in="SourceGraphic" in2="BackgroundImageFix" result="shape"></feBlend> <feGaussianBlur stdDeviation="159.145" result="effect1_foregroundBlur_1232_2"></feGaussianBlur> </filter> <filter id="filter2_f_1232_2" x="0.787048" y="229.508" width="1122.61" height="938.613" filterUnits="userSpaceOnUse" color-interpolation-filters="sRGB"> <feFlood flood-opacity="0" result="BackgroundImageFix"></feFlood> <feBlend mode="normal" in="SourceGraphic" in2="BackgroundImageFix" result="shape"></feBlend> <feGaussianBlur stdDeviation="158.653" result="effect1_foregroundBlur_1232_2"></feGaussianBlur> </filter> <filter id="filter3_f_1232_2" x="295.697" y="167.312" width="1193.97" height="911.593" filterUnits="userSpaceOnUse" color-interpolation-filters="sRGB"> <feFlood flood-opacity="0" result="BackgroundImageFix"></feFlood> <feBlend mode="normal" in="SourceGraphic" in2="BackgroundImageFix" result="shape"></feBlend> <feGaussianBlur stdDeviation="159.145" result="effect1_foregroundBlur_1232_2"></feGaussianBlur> </filter> <filter id="filter4_f_1232_2" x="74.894" y="228.452" width="1193.97" height="911.593" filterUnits="userSpaceOnUse" color-interpolation-filters="sRGB"> <feFlood flood-opacity="0" result="BackgroundImageFix"></feFlood> <feBlend mode="normal" in="SourceGraphic" in2="BackgroundImageFix" result="shape"></feBlend> <feGaussianBlur stdDeviation="159.145" result="effect1_foregroundBlur_1232_2"></feGaussianBlur> </filter> <filter id="filter5_f_1232_2" x="556.221" y="425.197" width="892.705" height="620.071" filterUnits="userSpaceOnUse" color-interpolation-filters="sRGB"> <feFlood flood-opacity="0" result="BackgroundImageFix"></feFlood> <feBlend mode="normal" in="SourceGraphic" in2="BackgroundImageFix" result="shape"></feBlend> <feGaussianBlur stdDeviation="75.6428" result="effect1_foregroundBlur_1232_2"></feGaussianBlur> </filter> </defs> </svg> 